<svg width="40" height="40" viewBox="0 0 40 40" fill="none" xmlns="http://www.w3.org/2000/svg">
<mask id="mask0_624_5103" style="mask-type:alpha" maskUnits="userSpaceOnUse" x="0" y="0" width="40" height="40">
<rect width="40" height="40" fill="#D9D9D9"/>
</mask>
<g mask="url(#mask0_624_5103)">
<path d="M3.33325 35V5H19.7221V11.8055H36.6666V35H3.33325ZM6.111 32.2222H10.1388V28.1945H6.111V32.2222ZM6.111 25.4167H10.1388V21.3889H6.111V25.4167ZM6.111 18.6111H10.1388V14.5833H6.111V18.6111ZM6.111 11.8055H10.1388V7.77775H6.111V11.8055ZM12.9166 32.2222H16.9444V28.1945H12.9166V32.2222ZM12.9166 25.4167H16.9444V21.3889H12.9166V25.4167ZM12.9166 18.6111H16.9444V14.5833H12.9166V18.6111ZM12.9166 11.8055H16.9444V7.77775H12.9166V11.8055ZM19.7221 32.2222H33.8888V14.5833H19.7221V18.6111H23.0555V21.3889H19.7221V25.4167H23.0555V28.1945H19.7221V32.2222ZM27.0833 21.3889V18.6111H29.861V21.3889H27.0833ZM27.0833 28.1945V25.4167H29.861V28.1945H27.0833Z" fill="#2A59BD"/>
</g>
</svg>
